<svg width="24" height="24" viewBox="0 0 24 24" fill="none" xmlns="http://www.w3.org/2000/svg">
<g clip-path="url(#clip0)">
<path d="M21.8789 12.2275C21.8789 11.5611 21.8173 10.9339 21.7165 10.3179H12.2133V14.1147H17.6565C17.4101 15.3579 16.6989 16.4107 15.6349 17.1275V19.6531H18.8829C20.7869 17.8891 21.8789 15.2963 21.8789 12.2275Z" fill="#4285F4"/>
<path d="M12.2133 22.0946C14.9405 22.0946 17.2197 21.1874 18.8829 19.6474L15.6349 17.1218C14.7277 17.7266 13.5741 18.0962 12.2133 18.0962C9.58131 18.0962 7.35251 16.321 6.55171 13.9242H3.20291V16.5226C4.86051 19.8266 8.27091 22.0946 12.2133 22.0946Z" fill="#34A853"/>
<path d="M6.5517 13.9242C6.3389 13.3194 6.2325 12.6698 6.2325 11.9978C6.2325 11.3258 6.3501 10.6762 6.5517 10.0714V7.47302H3.2029C2.5141 8.83382 2.1165 10.3682 2.1165 11.9978C2.1165 13.6274 2.5141 15.1618 3.2029 16.5226L6.5517 13.9242Z" fill="#FBBC05"/>
<path d="M12.2133 5.8994C13.7029 5.8994 15.0301 6.4146 16.0829 7.4114L18.9613 4.533C17.2197 2.9034 14.9405 1.901 12.2133 1.901C8.26531 1.901 4.86051 4.1746 3.20291 7.473L6.55171 10.0714C7.35251 7.6746 9.58131 5.8994 12.2133 5.8994Z" fill="#EA4335"/>
</g>
<defs>
<clipPath id="clip0">
<rect width="24" height="24" fill="white"/>
</clipPath>
</defs>
</svg>
